<?xml version="1.0" encoding="UTF-8"?>
<svg id="Layer_1" data-name="Layer 1" xmlns="http://www.w3.org/2000/svg" viewBox="0 0 301.5 301.5">
  <rect fill="#ffffff" stroke="#231f20" stroke-miterlimit="10" x=".5" y=".5" width="300.5" height="300.5"/>
  <path fill="#939598" d="m227.73,42.02h34.33v2.21c-11.6.59-17.4,6.65-17.4,18.17,0,2.46.29,5.86.89,10.19l22.86,164.73c1.38,8.21,2.93,13.46,4.65,15.75,1.72,2.3,5.29,3.69,10.7,4.18v2.21h-48.86v-2.21c6.51.2,9.77-2.93,9.77-9.38,0-1.47-.3-4.35-.89-8.65l-22.32-159.7-77.95,179.95h-1.47L63.65,79.82l-22.06,160.61c-.39,2.44-.59,5.22-.59,8.35,0,5.66,3.31,8.49,9.95,8.49v2.21H17.74v-2.21c5.02,0,8.24-.62,9.67-1.85,1.43-1.23,2.53-3.2,3.32-5.9.79-2.71,1.38-5.73,1.77-9.08l24.87-175.66c-4.04-9.75-8.09-15.6-12.14-17.57-4.04-1.97-7.94-2.96-11.69-2.96v-2.21h41.01l76.47,177.86L227.73,42.02Z"/>
  <g>
    <path fill="#231f20" d="m57.98,128.63l1.83,5.2h-.49c-4.76-4.74-10.36-7.1-16.8-7.1s-12.1,1.99-16.22,5.97c-4.12,3.98-6.18,8.79-6.18,14.44,0,3.49.92,7.5,2.75,12.04,1.83,4.54,4.73,8.27,8.69,11.19,3.96,2.92,8.75,4.39,14.38,4.39,3.69,0,7.31-.59,10.86-1.78,3.55-1.19,6.19-2.79,7.92-4.79l.43.13-3.44,5.27c-5.56,1.2-9.17,1.91-10.82,2.13-1.66.22-3.87.33-6.65.33-10.3,0-17.66-2.38-22.1-7.15-4.44-4.77-6.65-10.48-6.65-17.13,0-4.49,1.14-8.81,3.42-12.96,2.28-4.15,5.56-7.42,9.86-9.81,4.29-2.39,9.19-3.59,14.71-3.59,2.76,0,5.14.25,7.15.75,2.01.5,3.69,1.02,5.02,1.55l2.2.83c.07.02.11.04.13.07Z"/>
    <path fill="#231f20" d="m94.31,153.45h-14.42l-7.44,18.55c-.51,1.33-.77,2.16-.77,2.47,0,.73.54,1.1,1.63,1.1v.5h-7.3v-.5c.98,0,1.8-.24,2.47-.72.67-.48,1.4-1.72,2.2-3.72l17.81-44.93h.88l17.52,43.39c0,.22.45,1.28,1.35,3.16.9,1.88,2.27,2.82,4.11,2.82v.5h-11.47v-.5c1.05,0,1.57-.41,1.57-1.23,0-.56-.26-1.45-.77-2.67-.09-.09-.17-.23-.23-.43-.04-.22-.08-.33-.1-.33l-7.03-17.44Zm-13.95-1.37h13.29l-6.64-16.74-6.65,16.74Z"/>
    <path fill="#231f20" d="m155.64,126.33h9.51v.5c-1.45.04-2.45.35-3,.92s-.83,1.76-.83,3.59v44.73l-39.19-41.73v36.33c0,1.16.09,2.01.27,2.57.18.56.43.93.77,1.13.33.2,1.17.4,2.5.6v.5h-9.44v-.5c1.69,0,2.74-.3,3.15-.9.41-.6.62-2.03.62-4.3v-33.23c0-2.91-.41-5.29-1.22-7.13-.81-1.84-2.69-2.7-5.62-2.57v-.5h9.24l36.82,39.21v-34.68c0-1.87-.33-3.01-1-3.42-.67-.41-1.52-.62-2.57-.62v-.5Z"/>
    <path fill="#231f20" d="m193.63,175.7h-.63l-17.49-43.26c-1.25-3.05-2.27-4.83-3.07-5.35-.8-.52-1.62-.78-2.47-.78v-.5h11.34v.5c-1-.07-1.5.32-1.5,1.17,0,.33.07.69.2,1.07l15.25,37.81,15.12-37.8c.2-.51.3-.91.3-1.22,0-.75-.57-1.09-1.72-1.03v-.5h7.37v.5c-.51,0-1.05.07-1.62.22-.57.14-1.15.72-1.75,1.72-.6,1-.91,1.53-.93,1.6l-18.4,45.86Z"/>
    <path fill="#231f20" d="m233.01,153.08h-14.42l-7.44,18.55c-.51,1.33-.77,2.16-.77,2.47,0,.73.54,1.1,1.63,1.1v.5h-7.3v-.5c.98,0,1.8-.24,2.47-.72.67-.48,1.4-1.72,2.2-3.72l17.81-44.93h.88l17.52,43.39c0,.22.45,1.28,1.35,3.16.9,1.88,2.27,2.82,4.11,2.82v.5h-11.47v-.5c1.05,0,1.57-.41,1.57-1.23,0-.56-.26-1.45-.77-2.67-.09-.09-.17-.23-.23-.43-.04-.22-.08-.33-.1-.33l-7.03-17.44Zm-13.95-1.37h13.29l-6.64-16.74-6.65,16.74Z"/>
    <path fill="#231f20" d="m281.01,127.2l2.33,6.14-.4.07s-.62-.68-1.85-1.97c-1.23-1.29-2.65-2.28-4.24-2.99-1.59-.7-3.39-1.05-5.39-1.05-3.36,0-6.02.96-7.99,2.89-1.97,1.92-2.95,4.24-2.95,6.95,0,1.8.46,3.37,1.38,4.72.92,1.35,2.85,2.6,5.78,3.76,5.04,1.7,8.49,2.98,10.35,3.83,1.86.86,3.65,2.3,5.37,4.35s2.59,4.66,2.59,7.86c0,1.33-.16,2.6-.47,3.82-.31,1.21-.81,2.38-1.5,3.5-.69,1.12-1.52,2.14-2.48,3.07s-1.95,1.62-2.95,2.1-2.58.84-4.74,1.08c-2.16.24-3.58.37-4.27.37h-13.11v-14.28h.5c.04,4.74,1.16,8.04,3.34,9.91,2.18,1.87,5.57,2.8,10.17,2.8,4.18,0,7.35-.99,9.52-2.97s3.25-4.36,3.25-7.14c0-1.69-.38-3.13-1.13-4.32-.76-1.19-1.81-2.23-3.17-3.14-1.36-.9-3.92-2-7.7-3.3-3.76-1.32-6.4-2.47-7.92-3.46-1.52-.99-2.8-2.48-3.82-4.47s-1.54-4.02-1.54-6.08c0-3.8,1.31-6.99,3.92-9.56s6.04-3.87,10.29-3.87c1.65,0,3.42.19,5.34.57,1.91.38,2.98.62,3.2.73.09.04.18.07.27.07Z"/>
  </g>
</svg>